<?xml version="1.0" encoding="utf-8"?>
<!-- Generator: Adobe Illustrator 15.0.2, SVG Export Plug-In . SVG Version: 6.00 Build 0)  -->
<!DOCTYPE svg PUBLIC "-//W3C//DTD SVG 1.1//EN" "http://www.w3.org/Graphics/SVG/1.1/DTD/svg11.dtd">
<svg version="1.1" id="Layer_1" xmlns="http://www.w3.org/2000/svg" xmlns:xlink="http://www.w3.org/1999/xlink" x="0px" y="0px"
	 width="25px" height="25px" viewBox="0 0 25 25" enable-background="new 0 0 25 25" xml:space="preserve">
<g id="Layer_1_1_" display="none">
	
		<image display="inline" overflow="visible" enable-background="new    " width="360" height="272" xlink:href="9510AEDE.gif"  transform="matrix(0.1263 0 0 0.1263 27.2725 32.8281)">
	</image>
	<rect x="2.108" y="34.255" display="inline" fill="#38427A" width="6.73" height="6.654"/>
</g>
<g id="Layer_2">
	<path fill="#38427A" d="M7.587,24.614c-0.887,0-1.804-0.339-2.804-1.041c-2.127-1.485-2.025-4.007,0.3-7.481l0.14-0.212
		c-0.408-0.223-0.801-0.423-1.171-0.614c-2.229-1.148-4.337-2.236-4.02-5.093c0.239-2.151,2.229-3.386,5.458-3.386
		c0.553,0,1.039,0.039,1.38,0.085c0.207,0.022,0.524,0.073,0.917,0.136C7.85,7.02,7.915,7.029,7.983,7.04
		C8.04,6.502,8.076,5.971,8.089,5.448c0.099-3.478,2.33-5.062,4.362-5.062c2.328,0,4.707,1.991,4.738,5.794
		c0.002,0.166,0.004,0.327,0.012,0.486c1.253-0.409,2.307-0.609,3.201-0.609c2.154,0,3.584,1.117,4.371,3.416
		c0.342,0.959,0.295,1.92-0.141,2.773c-0.845,1.663-2.895,2.484-4.04,2.828c-0.036,0.015-0.184,0.084-0.454,0.234
		c3.32,3.75,2.547,6.287,1.299,7.766c-0.738,0.874-1.729,1.335-2.86,1.335c-2.694,0-5.427-2.579-5.727-2.873
		c-0.062-0.062-0.147-0.144-0.256-0.241C10.934,23.111,9.456,24.614,7.587,24.614z M7.02,16.955c-0.027,0.047-0.103,0.161-0.195,0.3
		c-1.614,2.413-1.881,3.875-0.84,4.604c0.637,0.443,1.16,0.66,1.603,0.66c0.917,0,1.929-0.97,3.42-2.592
		C10.049,19.145,8.55,17.961,7.02,16.955z M14.061,19.798c0.111,0.103,0.197,0.185,0.26,0.247c0.645,0.625,2.689,2.271,4.259,2.271
		c0.521,0,0.92-0.188,1.261-0.592c1.069-1.267,0.616-2.955-1.388-5.162c-0.041-0.045-0.077-0.086-0.11-0.123
		C16.996,17.354,15.4,18.559,14.061,19.798z M7.971,15.077c1.752,1.133,3.473,2.497,4.497,3.343
		c1.674-1.581,3.561-2.939,4.719-3.727c-0.645-1.185-1.414-2.988-1.812-5.354c-1.629,0.277-3.458,0.299-5.63,0.059
		C9.268,11.835,8.506,13.848,7.971,15.077z M5.491,8.88c-0.965,0-3.225,0.147-3.377,1.524c-0.143,1.283,0.46,1.74,2.898,3
		c0.361,0.188,0.744,0.384,1.141,0.598c0.477-1.123,1.103-2.84,1.514-4.893C7.593,9.098,7.524,9.087,7.456,9.075
		C7.104,9.02,6.819,8.971,6.614,8.95C6.319,8.91,5.932,8.88,5.491,8.88z M17.408,8.811c0.333,2.102,0.99,3.7,1.551,4.76
		c0.468-0.269,0.814-0.438,1.037-0.504c1.068-0.318,2.355-0.949,2.771-1.769c0.174-0.342,0.184-0.702,0.03-1.136
		c-0.571-1.672-1.372-2.014-2.396-2.014C19.635,8.15,18.652,8.367,17.408,8.811z M10.059,7.328c1.987,0.213,3.645,0.188,5.076-0.071
		c-0.02-0.344-0.033-0.696-0.037-1.058c-0.021-2.557-1.387-3.719-2.645-3.719c-1.087,0-2.209,0.936-2.269,3.025
		C10.167,6.104,10.125,6.713,10.059,7.328z"/>
</g>
</svg>
