<?xml version="1.0" encoding="utf-8"?>
<!-- Generator: Adobe Illustrator 18.0.0, SVG Export Plug-In . SVG Version: 6.00 Build 0)  -->
<!DOCTYPE svg PUBLIC "-//W3C//DTD SVG 1.1//EN" "http://www.w3.org/Graphics/SVG/1.1/DTD/svg11.dtd">
<svg version="1.1" id="Layer_1" xmlns="http://www.w3.org/2000/svg" xmlns:xlink="http://www.w3.org/1999/xlink" x="0px" y="0px"
	 viewBox="0 0 612 792" enable-background="new 0 0 612 792" xml:space="preserve">
<ellipse fill="#37447C" cx="295.7" cy="411.8" rx="149.5" ry="149.3"/>
<g>
	<path fill="#FFFFFF" d="M237.2,515.2c-5.2,7.2-10.1,9.9-16.8,5s-5.6-10.3-0.4-17.5c5.5-7.5,9.9-9.7,16.7-4.8
		C243.4,502.8,242.5,507.9,237.2,515.2z M222.5,504.5c-4.3,5.9-5.5,10-0.6,13.6c5,3.6,8.4,1.2,12.8-4.7c4.3-5.9,5.5-9.7,0.4-13.4
		C230.1,496.3,227,498.4,222.5,504.5z"/>
	<path fill="#FFFFFF" d="M202.2,505.1l-2-2.1l20.3-19.1l2,2.1L202.2,505.1z"/>
	<path fill="#FFFFFF" d="M206.5,465.1l1.6,2.4l-1.1,0.7c0,0,3.1,1.5,4.7,4c2.1,3.2,2.6,6.7-4.4,11.3c-5.7,3.8-9.8,3.9-13-1.1
		c-0.9-1.4-2-3.7-2.2-4.3l-7.1,4.8l-1.6-2.4L206.5,465.1z M205,469.5l-11,7.3c0.2,0.6,1.3,2.8,2.2,4.1c2.3,3.4,5.2,2.9,9.4,0.1
		c5.2-3.5,5-5.8,3.7-7.7C207.8,471,205,469.5,205,469.5z"/>
	<path fill="#FFFFFF" d="M171.4,452.5l-1.1-5.3l20.7-12.1l-23.8-2.8l-1.1-5.3l26.3-5.5l0.6,2.9l-23.2,4.8l0.1,0.5l23.9,3l0.7,3.3
		l-20.7,12.3l0.1,0.5l23.2-4.8l0.6,2.9L171.4,452.5z"/>
	<path fill="#FFFFFF" d="M190.9,398.9l2.3,0.1c0,0,0.4,4.5,0.2,7.6c-0.3,5.8-3.8,7.5-10.4,7.1c-7.4-0.4-10-3.8-9.7-8.7
		c0.3-5.2,3.2-7.6,9.5-7.3l2.2,0.3l-0.7,12.8c4.2,0.2,6.4-0.9,6.6-4.7C191,403.1,190.9,398.9,190.9,398.9z M182.5,400.6
		c-4.8-0.3-6.6,1.1-6.8,4.5c-0.2,3.3,1.5,5.3,6.2,5.6L182.5,400.6z"/>
	<path fill="#FFFFFF" d="M198.6,376.9l-0.8,2.8l-1.3-0.4c0,0,0.9,3.3,0.1,6.1c-1,3.7-3.4,6.3-11.5,4.1c-6.6-1.8-9.3-4.9-7.7-10.6
		c0.4-1.6,1.5-3.9,1.8-4.5l-8.3-2.3l0.8-2.8L198.6,376.9z M194.3,378.7l-12.7-3.5c-0.3,0.6-1.3,2.8-1.7,4.3c-1.1,3.9,1.2,5.8,6,7.2
		c6.1,1.7,7.6,0,8.2-2.2C195,381.8,194.3,378.7,194.3,378.7z"/>
	<path fill="#FFFFFF" d="M177.3,357.7l1.2-2.6l3.1,1.4l-1.2,2.6L177.3,357.7z M184.4,361l1.2-2.6l17.6,8.2l-1.2,2.6L184.4,361z"/>
	<path fill="#FFFFFF" d="M197.9,337.9l1.9,1.4c0,0-2,2.4-2.8,3.6c-2.5,3.7-1.5,5.8,2.9,8.7c4.8,3.2,7,3.6,9.7-0.5
		c0.8-1.2,2.2-4,2.2-4l2.1,1.2c0,0-1.5,3.3-2.5,4.8c-3.4,5.2-6.8,5.1-13.1,0.9c-5.9-3.9-6.9-7.3-3.7-12.1
		C195.5,340.5,197.9,337.9,197.9,337.9z"/>
	<path fill="#FFFFFF" d="M225.4,330.6c0.9,0.7,1.8,0.4,2.8-0.4l1.6,1.7c-1.4,1.5-2.7,2.2-4.3,2.2c0,0-1.3,3.6-3.8,6.1
		c-2.5,2.5-5.3,2.5-8.1-0.3c-2.7-2.6-2.5-5.1,0.1-8.3l3.9-4.8l-1.2-1.2c-1.9-1.9-3.4-1.8-5.1-0.1c-1.9,1.9-4.8,5.6-4.8,5.6l-1.7-1.5
		c0,0,2.4-3.6,4.7-6c3.1-3.1,5.8-3,8.8-0.1L225.4,330.6z M215.4,333c-1.5,1.9-1.3,3.3,0.2,4.8c1.6,1.6,3.2,1.8,4.6,0.4
		c2-2.1,3.4-5.2,3.4-5.2l-4.6-4.5L215.4,333z"/>
	<path fill="#FFFFFF" d="M218.4,305.3l2.3-1.7l16.5,22.5l-2.3,1.7L218.4,305.3z"/>
	<path fill="#FFFFFF" d="M270.3,309.4c-1.7,1-4.3,2.5-6.7,3.3c-7.5,2.8-10.9-1.2-14-9.5c-3.2-8.5-3.2-13.7,4.4-16.5
		c2.6-1,5.5-1.5,7.3-1.8l0.8,2.4c-1.7,0.3-4.8,1-6.8,1.8c-5.6,2.1-5.4,5.8-2.7,13c2.6,7,4.8,10,10.5,7.9c2-0.8,4.6-2.1,6.2-3.1
		L270.3,309.4z"/>
	<path fill="#FFFFFF" d="M291,296.3c1,7-0.3,10.5-6.8,11.4c-6.5,0.9-8.7-2.1-9.7-9.1c-0.9-6.6,0.8-10.1,6.9-10.9
		C287.6,286.8,290.1,289.7,291,296.3z M288.1,296.7c-0.7-5.3-2.2-7.1-6.3-6.5c-4.1,0.6-5,2.7-4.3,8c0.8,5.5,1.8,7.6,6.3,7
		C288.5,304.5,288.8,302.2,288.1,296.7z"/>
	<path fill="#FFFFFF" d="M300.9,278.4l2.9,0.1l-0.7,27.9l-2.9-0.1L300.9,278.4z"/>
	<path fill="#FFFFFF" d="M316.2,279.5l2.9,0.4l-3.9,27.6l-2.9-0.4L316.2,279.5z"/>
	<path fill="#FFFFFF" d="M338.2,310.8l-0.6,2.2c0,0-4.4-0.7-7.4-1.7c-5.5-1.7-6.3-5.5-4.4-11.8c2.2-7.1,6.1-8.8,10.8-7.4
		c4.9,1.5,6.7,4.9,4.8,11l-0.8,2.1l-12.2-3.8c-1.2,4-0.7,6.4,3,7.6C334,309.9,338.2,310.8,338.2,310.8z M338.6,302.2
		c1.4-4.6,0.5-6.7-2.7-7.7c-3.2-1-5.5,0.2-6.9,4.7L338.6,302.2z"/>
	<path fill="#FFFFFF" d="M342.3,318.7c1.1-2,2.5-2.4,5-2.7c-0.4-0.7-0.2-1.8,0.4-2.9c0.4-0.6,2.7-2,2.7-2c-1.1-1.4-1.6-3.5,0.2-6.6
		c2.3-4.2,5.8-4.3,9.6-2.2c1.7,1,3.3,2.4,3.3,2.4l5.1,2.7l-1.2,2.2l-3.2-1.9c0.3,1,0.2,2.2-0.8,4c-2.5,4.4-5.4,4.5-9.8,2
		c-0.3-0.2-1.2-0.8-1.6-1.1c0,0-1.4,1.1-1.7,1.6c-0.8,1.4-0.6,1.7,3.2,3.9c4.8,2.7,6,4.6,3.7,8.7c-2.2,3.8-5.8,3.8-10.5,1.2
		C341.3,324.9,340,322.7,342.3,318.7z M348.4,318c-2,0.3-2.8,0.6-3.6,1.9c-1.3,2.3-0.8,3.7,3,5.9c3.4,1.9,5.4,1.8,6.7-0.4
		c1.4-2.6,0.5-3.5-2.6-5.2C350.8,319.6,348.4,318,348.4,318z M360.7,310.3c1.5-2.7,1-4.3-1.8-5.9c-2.6-1.5-4.4-1.1-5.9,1.6
		c-1.5,2.7-0.9,4.3,1.7,5.8C357.6,313.4,359.2,313,360.7,310.3z"/>
	<path fill="#FFFFFF" d="M376.2,335.7l-1.5,1.8c0,0-3.7-2.5-6.1-4.5c-4.3-3.8-3.5-7.6,0.8-12.6c4.9-5.5,9.1-5.6,12.8-2.3
		c3.9,3.4,4.1,7.2-0.1,12l-1.6,1.6l-9.6-8.5c-2.7,3.1-3.2,5.6-0.4,8.1C372.8,333.1,376.2,335.7,376.2,335.7z M380,328
		c3.2-3.6,3.2-5.9,0.6-8.1c-2.5-2.2-5.1-2-8.2,1.5L380,328z"/>
	<path fill="#FFFFFF" d="M403.5,361.2c-6.1,3.6-9.8,3.7-13.1-2c-3.3-5.6-1.4-8.8,4.7-12.4c5.8-3.4,9.6-3.1,12.7,2.2
		C410.9,354.4,409.2,357.9,403.5,361.2z M402,358.7c4.7-2.7,5.8-4.7,3.7-8.3c-2.1-3.6-4.4-3.6-9-0.9c-4.8,2.8-6.4,4.6-4.1,8.5
		C394.9,362,397.2,361.4,402,358.7z"/>
	<path fill="#FFFFFF" d="M398.9,376.7l-1-2.7l15.9-5.7l-0.8-2.3l2.4-0.9l0.8,2.3l1.6-0.6c5.3-1.9,7.2-1,8.5,2.5
		c0.4,1.2,1.1,3.8,1.1,3.8l-2.3,0.8c0,0-0.7-2.1-1.1-3.2c-0.7-2-1.8-2.4-5.3-1.2l-1.6,0.6l1.9,5.3l-2.4,0.9l-1.9-5.3L398.9,376.7z"
		/>
	<path fill="#FFFFFF" d="M417.8,396.9l1.1,7.3l-13.1,1.9c-0.3-0.8-1.8-5.6-2.2-8.5c-1.2-8.2,3.5-11,12.1-12.3
		c8.8-1.3,14.1,0.2,15.3,8.2c0.6,4,0.3,8.9,0.3,8.9l-2.5,0.2c0,0,0.1-4.9-0.4-8.4c-0.9-6.2-4.7-7-12.2-5.9
		c-7.4,1.1-10.8,2.9-9.9,9.1c0.3,1.9,1,4.4,1.3,5.4l8.2-1.2l-0.6-4.4L417.8,396.9z"/>
	<path fill="#FFFFFF" d="M406.6,428.5l-2.3-0.1c0,0-0.3-4.5,0-7.6c0.5-5.8,4-7.4,10.6-6.9c7.4,0.6,9.9,4,9.5,8.9
		c-0.4,5.2-3.3,7.6-9.7,7.1l-2.2-0.3l1-12.8c-4.1-0.3-6.4,0.8-6.7,4.6C406.6,424.3,406.6,428.5,406.6,428.5z M415.1,427
		c4.8,0.4,6.6-0.9,6.9-4.4c0.3-3.3-1.4-5.3-6.1-5.7L415.1,427z"/>
	<path fill="#FFFFFF" d="M407.6,454c-6.8-2-9.4-4.7-7.5-11c1.9-6.3,5.5-7,12.3-5c6.4,1.9,8.8,4.9,7,10.8
		C417.7,454.8,414,455.9,407.6,454z M408.5,451.1c5.2,1.6,7.4,1,8.6-3c1.2-3.9-0.3-5.7-5.5-7.2c-5.3-1.6-7.7-1.6-9,2.8
		C401.2,448.2,403.2,449.5,408.5,451.1z"/>
	<path fill="#FFFFFF" d="M412.2,466.8l-1.3,2.6l-2.3-1.2c0,0,0.5,4.1-0.6,7.7l-2.6-1.4c1-3.6,0.9-7.5,0.9-7.5l-12.7-6.6l1.3-2.6
		L412.2,466.8z"/>
	<path fill="#FFFFFF" d="M385.2,469c1.8,1.4,2,2.9,1.9,5.4c0.8-0.3,1.8,0,2.8,0.8c0.6,0.5,1.6,2.9,1.6,2.9c1.6-0.8,3.7-1,6.5,1.2
		c3.8,2.9,3.4,6.4,0.8,9.8c-1.2,1.5-2.9,2.9-2.9,2.9l-3.4,4.6l-2-1.5l2.3-2.9c-1,0.1-2.2-0.1-3.9-1.4c-4-3.1-3.6-6-0.6-10
		c0.2-0.3,1-1.1,1.3-1.4c0,0-0.9-1.6-1.3-1.9c-1.2-1-1.6-0.8-4.3,2.6c-3.4,4.4-5.5,5.3-9.1,2.4c-3.5-2.7-3-6.3,0.4-10.6
		C379.2,467.2,381.6,466.3,385.2,469z M385,475.3c0-2-0.2-2.9-1.4-3.8c-2.1-1.6-3.6-1.3-6.3,2.1c-2.4,3.1-2.6,5.1-0.6,6.7
		c2.3,1.8,3.3,1,5.5-1.8C383.1,477.4,385,475.3,385,475.3z M390.8,488.6c2.4,1.9,4.1,1.7,6.1-0.9c1.9-2.4,1.7-4.2-0.7-6.1
		c-2.4-1.9-4.2-1.6-6,0.8C388.2,485,388.4,486.7,390.8,488.6z"/>
	<path fill="#FFFFFF" d="M385.7,503.2l-2.1,2L370.3,491l2.1-2L385.7,503.2z M391,508.9l-2.1,2l-2.3-2.5l2.1-2L391,508.9z"/>
	<path fill="#FFFFFF" d="M354.6,507.2c-0.7-0.9-1.7-0.7-2.8-0.2l-1.2-2c1.7-1.2,3.1-1.6,4.7-1.3c0,0,2-3.2,4.9-5.2
		c2.9-2,5.7-1.4,7.9,1.9c2.1,3.1,1.4,5.5-1.7,8.1l-4.7,3.9l0.9,1.4c1.5,2.3,3,2.4,5,1.1c2.3-1.5,5.8-4.5,5.8-4.5l1.3,1.8
		c0,0-3.1,3.1-5.8,5c-3.6,2.5-6.3,1.8-8.7-1.7L354.6,507.2z M364.9,507c1.8-1.5,2-3,0.8-4.7c-1.3-1.9-2.8-2.4-4.4-1.3
		c-2.4,1.6-4.4,4.4-4.4,4.4l3.6,5.3L364.9,507z"/>
</g>
<ellipse fill="#FFFFFF" cx="297.7" cy="414.2" rx="91.8" ry="90.3"/>
<path fill="none" stroke="#37447C" stroke-width="7" stroke-miterlimit="10" d="M340.4,429c0.8,1.4,24.1,22.9,9.5,40.2
	c-14.6,17.2-42.1-9.6-42.1-9.6c-4-4-26.2-23.2-44.4-33.5s-31.8-13.6-30.2-29.2c1.7-15.6,25.5-15.2,33.8-14.3c8.3,1,37.8,8,61-0.3
	s34.8-5.3,40.8,11.6c6,16.9-16.6,24.2-20.9,25.4c-4.3,1.2-32.5,19.1-48.7,37c-16.2,17.9-24.5,25.9-40.4,14.9
	c-15.9-10.9,2.3-34.1,4.6-37.8s16.9-31.2,17.9-65c1-33.8,41.4-31.8,41.8,4.3C323.4,408.9,340.4,429,340.4,429z"/>
</svg>
