<?xml version="1.0" encoding="utf-8"?>
<!-- Generator: Adobe Illustrator 15.0.2, SVG Export Plug-In . SVG Version: 6.00 Build 0)  -->
<!DOCTYPE svg PUBLIC "-//W3C//DTD SVG 1.1//EN" "http://www.w3.org/Graphics/SVG/1.1/DTD/svg11.dtd">
<svg version="1.1" id="Layer_1" xmlns="http://www.w3.org/2000/svg" xmlns:xlink="http://www.w3.org/1999/xlink" x="0px" y="0px"
	 width="25px" height="25px" viewBox="37.5 37.5 25 25" enable-background="new 37.5 37.5 25 25" xml:space="preserve">
<g id="Layer_1_1_" display="none">
	
		<image display="inline" overflow="visible" enable-background="new    " width="360" height="272" xlink:href="1AFE992E.gif"  transform="matrix(0.1263 0 0 0.1263 27.2725 32.8281)">
	</image>
	<rect x="2.108" y="34.255" display="inline" fill="#38427A" width="6.73" height="6.654"/>
</g>
<g id="Layer_2">
	<path fill="#FFFFFF" d="M50,37.5c-6.904,0-12.5,5.596-12.5,12.5c0,6.902,5.596,12.5,12.5,12.5c6.903,0,12.5-5.598,12.5-12.5
		C62.5,43.096,56.903,37.5,50,37.5z M50,57.793c-4.374,0-7.92-3.488-7.92-7.793s3.546-7.793,7.92-7.793s7.92,3.488,7.92,7.793
		S54.374,57.793,50,57.793z"/>
	<g>
		<path fill="#37447C" d="M44.812,58.905c-0.455,0.632-0.873,0.885-1.468,0.455c-0.594-0.43-0.506-0.897-0.05-1.544
			c0.468-0.657,0.86-0.86,1.467-0.442C45.344,57.816,45.267,58.259,44.812,58.905z M43.509,57.981
			c-0.367,0.519-0.48,0.886-0.038,1.189c0.443,0.316,0.746,0.101,1.113-0.431c0.38-0.531,0.468-0.86,0.026-1.176
			C44.167,57.26,43.901,57.437,43.509,57.981z"/>
		<path fill="#37447C" d="M41.75,58.069l-0.177-0.189l1.771-1.695l0.177,0.189L41.75,58.069z"/>
		<path fill="#37447C" d="M42.117,54.565l0.139,0.215l-0.102,0.063c0,0,0.279,0.126,0.418,0.342
			c0.189,0.278,0.228,0.582-0.379,0.999c-0.494,0.343-0.861,0.343-1.151-0.088c-0.089-0.128-0.177-0.329-0.203-0.367l-0.62,0.43
			l-0.139-0.216L42.117,54.565z M41.991,54.957l-0.961,0.658c0.025,0.051,0.114,0.24,0.189,0.354c0.203,0.292,0.456,0.254,0.823,0
			c0.455-0.315,0.43-0.519,0.316-0.683C42.231,55.097,41.991,54.957,41.991,54.957z"/>
		<path fill="#37447C" d="M39.042,53.553l-0.101-0.469l1.81-1.074l-2.101-0.228l-0.101-0.469l2.315-0.505l0.05,0.252l-2.037,0.442
			l0.013,0.051l2.1,0.253l0.063,0.291l-1.81,1.089l0.013,0.051l2.037-0.443l0.05,0.253L39.042,53.553z"/>
		<path fill="#37447C" d="M40.725,48.847h0.203c0,0,0.038,0.392,0.025,0.67c-0.025,0.506-0.329,0.658-0.911,0.632
			c-0.646-0.039-0.886-0.329-0.86-0.759c0.025-0.455,0.278-0.67,0.834-0.645l0.19,0.025l-0.063,1.126
			c0.367,0.013,0.557-0.089,0.582-0.417C40.738,49.227,40.725,48.847,40.725,48.847z M39.991,48.999
			c-0.417-0.025-0.582,0.101-0.594,0.405c-0.013,0.291,0.139,0.468,0.544,0.481L39.991,48.999z"/>
		<path fill="#37447C" d="M41.396,46.949l-0.063,0.24l-0.114-0.025c0,0,0.076,0.291,0.013,0.544c-0.089,0.33-0.292,0.557-1,0.367
			c-0.582-0.165-0.822-0.43-0.683-0.923c0.038-0.139,0.126-0.342,0.152-0.392l-0.734-0.203l0.063-0.24L41.396,46.949z
			 M41.017,47.114l-1.114-0.304c-0.025,0.051-0.113,0.241-0.152,0.379c-0.088,0.342,0.102,0.506,0.532,0.633
			c0.531,0.152,0.67,0,0.721-0.203C41.08,47.379,41.017,47.114,41.017,47.114z"/>
		<path fill="#37447C" d="M39.511,45.304l0.102-0.227l0.266,0.126l-0.102,0.228L39.511,45.304z M40.131,45.583l0.101-0.228
			l1.556,0.708l-0.101,0.228L40.131,45.583z"/>
		<path fill="#37447C" d="M41.295,43.583l0.164,0.127c0,0-0.177,0.215-0.24,0.316c-0.215,0.33-0.126,0.506,0.253,0.759
			c0.417,0.278,0.62,0.316,0.847-0.038c0.076-0.113,0.19-0.354,0.19-0.354l0.177,0.101c0,0-0.139,0.291-0.215,0.417
			c-0.292,0.456-0.595,0.456-1.151,0.089c-0.519-0.342-0.608-0.632-0.329-1.063C41.092,43.812,41.295,43.583,41.295,43.583z"/>
		<path fill="#37447C" d="M43.699,42.964c0.076,0.063,0.164,0.038,0.24-0.038l0.139,0.151c-0.126,0.127-0.241,0.19-0.379,0.19
			c0,0-0.114,0.316-0.329,0.531c-0.215,0.228-0.468,0.215-0.708-0.025c-0.241-0.228-0.215-0.456,0-0.721l0.342-0.417l-0.102-0.101
			c-0.164-0.165-0.304-0.152-0.442-0.013c-0.165,0.165-0.417,0.494-0.417,0.494l-0.152-0.127c0,0,0.215-0.316,0.418-0.531
			c0.266-0.278,0.506-0.266,0.771-0.013L43.699,42.964z M42.826,43.167c-0.126,0.164-0.114,0.291,0.013,0.417
			c0.139,0.14,0.278,0.165,0.405,0.038c0.177-0.177,0.304-0.455,0.304-0.455l-0.405-0.393L42.826,43.167z"/>
		<path fill="#37447C" d="M43.053,40.75l0.203-0.152l1.455,1.974l-0.203,0.152L43.053,40.75z"/>
		<path fill="#37447C" d="M47.558,41.142c-0.14,0.089-0.38,0.215-0.583,0.291c-0.657,0.241-0.961-0.101-1.227-0.834
			c-0.278-0.747-0.278-1.202,0.38-1.442c0.228-0.088,0.481-0.14,0.633-0.152l0.063,0.215c-0.152,0.025-0.43,0.089-0.595,0.152
			c-0.494,0.177-0.468,0.506-0.241,1.139c0.228,0.62,0.418,0.885,0.924,0.695c0.177-0.063,0.405-0.189,0.544-0.266L47.558,41.142z"
			/>
		<path fill="#37447C" d="M49.367,40.003c0.089,0.62-0.025,0.924-0.595,1c-0.569,0.076-0.759-0.19-0.848-0.797
			c-0.076-0.582,0.076-0.885,0.607-0.961C49.05,39.168,49.278,39.421,49.367,40.003z M49.101,40.029
			c-0.063-0.468-0.19-0.62-0.557-0.569c-0.354,0.05-0.443,0.228-0.38,0.708c0.063,0.48,0.165,0.67,0.557,0.62
			C49.139,40.724,49.165,40.51,49.101,40.029z"/>
		<path fill="#37447C" d="M50.202,38.422l0.253,0.013l-0.063,2.455l-0.253-0.013L50.202,38.422z"/>
		<path fill="#37447C" d="M51.505,38.523l0.254,0.038l-0.342,2.429l-0.254-0.038L51.505,38.523z"/>
		<path fill="#37447C" d="M53.415,41.269l-0.05,0.189c0,0-0.393-0.063-0.658-0.151c-0.48-0.152-0.557-0.481-0.379-1.038
			c0.188-0.62,0.531-0.772,0.948-0.645c0.431,0.139,0.582,0.43,0.418,0.961l-0.075,0.177l-1.077-0.329
			c-0.113,0.354-0.062,0.569,0.267,0.67C53.049,41.192,53.415,41.269,53.415,41.269z M53.44,40.51
			c0.127-0.405,0.051-0.583-0.239-0.671c-0.279-0.089-0.481,0.013-0.608,0.417L53.44,40.51z"/>
		<path fill="#37447C" d="M53.732,41.952c0.102-0.177,0.227-0.203,0.442-0.241c-0.037-0.063-0.025-0.165,0.038-0.253
			c0.038-0.05,0.228-0.177,0.228-0.177c-0.088-0.127-0.139-0.304,0.025-0.582c0.202-0.367,0.519-0.379,0.848-0.189
			c0.152,0.088,0.292,0.214,0.292,0.214l0.442,0.241l-0.114,0.189l-0.278-0.164c0.025,0.088,0.025,0.189-0.075,0.354
			c-0.216,0.393-0.481,0.393-0.861,0.177c-0.025-0.012-0.113-0.076-0.139-0.089c0,0-0.127,0.102-0.152,0.14
			c-0.063,0.114-0.05,0.152,0.279,0.341c0.417,0.24,0.53,0.405,0.328,0.76c-0.189,0.341-0.507,0.341-0.923,0.101
			C53.656,42.496,53.542,42.293,53.732,41.952z M54.289,41.888c-0.177,0.025-0.254,0.051-0.316,0.165
			c-0.114,0.203-0.076,0.329,0.266,0.519c0.29,0.165,0.48,0.165,0.582-0.038c0.126-0.228,0.051-0.304-0.228-0.456
			C54.491,42.028,54.289,41.888,54.289,41.888z M55.364,41.218c0.126-0.241,0.088-0.379-0.152-0.519
			c-0.228-0.126-0.379-0.101-0.519,0.139s-0.088,0.379,0.152,0.506C55.087,41.484,55.237,41.445,55.364,41.218z"/>
		<path fill="#37447C" d="M56.693,43.432l-0.127,0.151c0,0-0.329-0.215-0.531-0.404c-0.38-0.342-0.304-0.671,0.075-1.101
			c0.431-0.48,0.81-0.48,1.127-0.203c0.341,0.304,0.354,0.633-0.014,1.051l-0.139,0.139l-0.848-0.746
			c-0.241,0.278-0.292,0.493-0.038,0.708C56.389,43.205,56.693,43.432,56.693,43.432z M57.034,42.762
			c0.278-0.316,0.278-0.519,0.063-0.721c-0.215-0.19-0.443-0.177-0.722,0.126L57.034,42.762z"/>
		<path fill="#37447C" d="M59.046,45.646c-0.544,0.316-0.86,0.316-1.151-0.177c-0.291-0.493-0.113-0.771,0.417-1.088
			c0.507-0.291,0.848-0.266,1.114,0.202C59.703,45.051,59.553,45.355,59.046,45.646z M58.907,45.418
			c0.416-0.24,0.506-0.405,0.328-0.734c-0.177-0.316-0.38-0.316-0.796-0.088c-0.418,0.24-0.558,0.405-0.368,0.747
			C58.286,45.709,58.49,45.659,58.907,45.418z"/>
		<path fill="#37447C" d="M58.615,46.975l-0.088-0.241l1.405-0.493l-0.077-0.202l0.216-0.076l0.075,0.202l0.14-0.05
			c0.468-0.165,0.633-0.089,0.746,0.228c0.038,0.113,0.088,0.329,0.088,0.329l-0.201,0.063c0,0-0.063-0.177-0.088-0.278
			c-0.065-0.177-0.166-0.215-0.456-0.101l-0.14,0.051l0.165,0.468l-0.216,0.076l-0.164-0.468L58.615,46.975z"/>
		<path fill="#37447C" d="M60.261,48.733l0.089,0.645l-1.151,0.165c-0.025-0.063-0.152-0.494-0.189-0.747
			c-0.102-0.721,0.314-0.974,1.074-1.075c0.785-0.114,1.241,0.025,1.342,0.734c0.05,0.354,0.013,0.784,0.013,0.784l-0.216,0.025
			c0,0,0.013-0.43-0.025-0.734c-0.076-0.544-0.405-0.62-1.075-0.519c-0.645,0.088-0.948,0.253-0.873,0.797
			c0.025,0.165,0.089,0.393,0.114,0.481l0.721-0.101l-0.051-0.393L60.261,48.733z"/>
		<path fill="#37447C" d="M59.261,51.466l-0.202-0.014c0,0-0.024-0.392,0-0.669c0.051-0.506,0.354-0.646,0.937-0.595
			c0.646,0.063,0.873,0.354,0.836,0.796c-0.04,0.456-0.305,0.657-0.861,0.607l-0.19-0.025l0.103-1.125
			c-0.368-0.038-0.57,0.062-0.596,0.392C59.261,51.098,59.261,51.466,59.261,51.466z M59.995,51.339
			c0.417,0.038,0.581-0.075,0.606-0.38c0.025-0.291-0.113-0.468-0.53-0.505L59.995,51.339z"/>
		<path fill="#37447C" d="M59.323,53.68c-0.594-0.19-0.821-0.417-0.644-0.975c0.176-0.544,0.493-0.607,1.087-0.43
			c0.557,0.177,0.772,0.443,0.608,0.962C60.21,53.756,59.894,53.857,59.323,53.68z M59.413,53.427
			c0.455,0.139,0.645,0.101,0.759-0.253c0.114-0.342-0.025-0.493-0.48-0.646c-0.468-0.139-0.671-0.139-0.797,0.241
			C58.768,53.161,58.945,53.288,59.413,53.427z"/>
		<path fill="#37447C" d="M59.729,54.78l-0.113,0.228l-0.202-0.113c0,0,0.038,0.354-0.051,0.684l-0.228-0.128
			c0.089-0.315,0.089-0.657,0.089-0.657l-1.102-0.595l0.127-0.228L59.729,54.78z"/>
		<path fill="#37447C" d="M57.362,54.92c0.153,0.125,0.165,0.253,0.165,0.479c0.076-0.024,0.165,0,0.24,0.076
			c0.051,0.038,0.139,0.254,0.139,0.254c0.141-0.076,0.33-0.089,0.57,0.113c0.328,0.266,0.291,0.569,0.063,0.86
			c-0.101,0.139-0.254,0.253-0.254,0.253l-0.303,0.404l-0.178-0.139l0.203-0.253c-0.089,0.014-0.19-0.013-0.342-0.127
			c-0.342-0.277-0.316-0.53-0.038-0.873c0.025-0.025,0.088-0.101,0.113-0.126c0,0-0.075-0.139-0.113-0.164
			c-0.102-0.089-0.139-0.075-0.38,0.228c-0.304,0.38-0.48,0.455-0.797,0.202c-0.303-0.24-0.253-0.556,0.052-0.936
			C56.844,54.755,57.06,54.68,57.362,54.92z M57.338,55.476c0.013-0.177-0.013-0.252-0.114-0.341
			c-0.189-0.152-0.316-0.127-0.556,0.177c-0.216,0.267-0.241,0.442-0.063,0.582c0.202,0.165,0.29,0.089,0.48-0.151
			C57.173,55.653,57.338,55.476,57.338,55.476z M57.844,56.641c0.216,0.164,0.354,0.151,0.544-0.076
			c0.165-0.203,0.152-0.367-0.051-0.531c-0.215-0.165-0.365-0.14-0.531,0.063C57.616,56.337,57.629,56.476,57.844,56.641z"/>
		<path fill="#37447C" d="M57.401,57.904l-0.189,0.179l-1.151-1.267l0.189-0.176L57.401,57.904z M57.856,58.411l-0.189,0.178
			l-0.202-0.216l0.189-0.177L57.856,58.411z"/>
		<path fill="#37447C" d="M54.682,58.209c-0.063-0.075-0.153-0.063-0.254-0.013l-0.101-0.177c0.151-0.102,0.278-0.14,0.417-0.115
			c0,0,0.178-0.277,0.443-0.455c0.265-0.164,0.506-0.113,0.683,0.178c0.178,0.277,0.114,0.493-0.164,0.708l-0.418,0.343l0.076,0.125
			c0.126,0.204,0.267,0.216,0.431,0.103c0.201-0.127,0.519-0.393,0.519-0.393l0.113,0.151c0,0-0.277,0.267-0.519,0.431
			c-0.328,0.215-0.557,0.151-0.759-0.164L54.682,58.209z M55.58,58.196c0.164-0.127,0.176-0.252,0.075-0.417
			c-0.113-0.164-0.24-0.215-0.393-0.127c-0.216,0.139-0.392,0.38-0.392,0.38l0.304,0.468L55.58,58.196z"/>
	</g>
	<path fill="#FFFFFF" d="M47.649,55.797c-0.424,0-0.863-0.162-1.342-0.498c-1.018-0.711-0.969-1.917,0.144-3.58l0.066-0.102
		c-0.195-0.106-0.383-0.202-0.56-0.294c-1.067-0.55-2.075-1.071-1.923-2.437c0.115-1.03,1.066-1.62,2.612-1.62
		c0.265,0,0.497,0.019,0.661,0.041c0.099,0.011,0.251,0.036,0.439,0.065c0.03,0.005,0.061,0.01,0.093,0.015
		c0.027-0.257,0.044-0.512,0.051-0.762c0.047-1.664,1.115-2.422,2.087-2.422c1.115,0,2.252,0.953,2.268,2.773
		c0.001,0.079,0.002,0.156,0.005,0.232c0.6-0.196,1.104-0.292,1.532-0.292c1.03,0,1.715,0.535,2.091,1.635
		c0.164,0.458,0.142,0.919-0.066,1.327c-0.404,0.796-1.385,1.189-1.934,1.354c-0.018,0.007-0.088,0.04-0.217,0.112
		c1.589,1.794,1.218,3.009,0.621,3.716c-0.354,0.418-0.827,0.639-1.369,0.639c-1.289,0-2.596-1.234-2.741-1.375
		c-0.029-0.029-0.071-0.068-0.122-0.115C49.25,55.078,48.543,55.797,47.649,55.797z M47.377,52.132
		c-0.013,0.022-0.049,0.077-0.093,0.144c-0.772,1.154-0.9,1.854-0.402,2.203c0.305,0.213,0.556,0.316,0.767,0.316
		c0.439,0,0.922-0.464,1.637-1.24C48.827,53.18,48.11,52.613,47.377,52.132z M50.747,53.492c0.053,0.049,0.094,0.088,0.123,0.118
		c0.309,0.299,1.288,1.087,2.038,1.087c0.249,0,0.44-0.09,0.604-0.283c0.512-0.605,0.295-1.414-0.664-2.47
		c-0.02-0.021-0.037-0.041-0.053-0.059C52.151,52.322,51.388,52.898,50.747,53.492z M47.832,51.233
		c0.838,0.542,1.662,1.194,2.152,1.6c0.801-0.757,1.704-1.407,2.259-1.783c-0.309-0.566-0.677-1.43-0.868-2.562
		c-0.779,0.133-1.655,0.143-2.694,0.028C48.453,49.682,48.089,50.645,47.832,51.233z M46.646,48.268
		c-0.461,0-1.542,0.071-1.616,0.729c-0.068,0.614,0.22,0.833,1.387,1.436c0.173,0.09,0.356,0.184,0.546,0.286
		c0.228-0.537,0.528-1.359,0.724-2.341c-0.035-0.005-0.068-0.011-0.101-0.016c-0.168-0.027-0.304-0.049-0.403-0.06
		C47.042,48.282,46.857,48.268,46.646,48.268z M52.349,48.234c0.159,1.006,0.474,1.771,0.742,2.278
		c0.224-0.128,0.39-0.209,0.496-0.241c0.512-0.153,1.128-0.455,1.326-0.846c0.083-0.164,0.088-0.336,0.015-0.543
		c-0.273-0.8-0.656-0.963-1.146-0.963C53.414,47.918,52.944,48.022,52.349,48.234z M48.832,47.525
		c0.951,0.102,1.744,0.09,2.429-0.034c-0.01-0.165-0.016-0.333-0.018-0.506c-0.011-1.223-0.664-1.78-1.266-1.78
		c-0.52,0-1.057,0.448-1.085,1.448C48.883,46.939,48.863,47.231,48.832,47.525z"/>
</g>
</svg>
